<svg xmlns="http://www.w3.org/2000/svg" xmlns:xlink="http://www.w3.org/1999/xlink" fill="none" version="1.1" width="33.000244140625" height="34" viewBox="0 0 33.000244140625 34"><defs><mask id="master_svg0_1_029"><g><rect x="0" y="0" width="33" height="34" rx="0" fill="#FFFFFF" fill-opacity="1"/></g></mask><mask id="master_svg1_1_022"><g><rect x="0" y="0" width="33" height="34" rx="0" fill="#FFFFFF" fill-opacity="1"/></g></mask><mask id="master_svg2_1_019"><g><rect x="0" y="0" width="33" height="34" rx="0" fill="#FFFFFF" fill-opacity="1"/></g></mask><mask id="master_svg3_1_016"><g><rect x="0" y="0" width="33" height="34" rx="0" fill="#FFFFFF" fill-opacity="1"/></g></mask><mask id="master_svg4_1_024"><g><path d="M0,33.8753L33.0002,33.8753L33.0002,0L0,0L0,33.8753Z" fill="#FFFFFF" fill-opacity="1"/></g></mask></defs><g><g mask="url(#master_svg0_1_029)"><g><path d="M11.876844439697265,28.22C14.390744439697265,28.22,16.449144439697264,26.2173,16.540244439697265,23.723L16.540244439697265,1.4201L20.620794439697264,1.4201C20.529594439697266,0.96494,20.493194439697266,0.491574,20.493194439697266,0L14.919044439697267,0L14.919044439697267,22.3029C14.827944439697266,24.7972,12.769444439697265,26.7999,10.255644439697265,26.7999C9.472334439697265,26.7999,8.725463439697265,26.5996,8.087894439697266,26.2537C8.944054439697265,27.4553,10.328444439697265,28.22,11.876844439697265,28.22Z" fill="#00FAF0" fill-opacity="1"/></g></g><g mask="url(#master_svg1_1_022)"><g><path d="M24.04514435424805,6.500499987220764C22.861144354248047,5.135019987220764,22.132544354248047,3.3689899872207643,22.132544354248047,1.4208999872207642L20.638744354248047,1.4208999872207642C21.039545354248048,3.5328499872207644,22.296444354248045,5.353499987220764,24.04514435424805,6.500499987220764Z" fill="#FF0050" fill-opacity="1"/></g></g><g mask="url(#master_svg2_1_019)"><g><path d="M10.255344283447265,17.459700425720214C7.668604283447266,17.459700425720214,5.573734283447266,19.553400425720213,5.573734283447266,22.138700425720216C5.573734283447266,23.941200425720215,6.5938442834472655,25.488700425720214,8.087574283447266,26.271600425720216C7.541084283447265,25.506900425720215,7.194974283447266,24.560200425720215,7.194974283447266,23.540600425720214C7.194974283447266,20.955300425720214,9.289854283447266,18.861600425720216,11.876544283447267,18.861600425720216C12.350144283447266,18.861600425720216,12.823844283447265,18.934400425720213,13.261044283447266,19.080000425720215L13.261044283447266,13.399600025720215C12.805644283447265,13.345000225720215,12.350144283447266,13.308600425720215,11.876544283447267,13.308600425720215C11.803744283447266,13.308600425720215,11.712644283447265,13.308600425720215,11.639744283447266,13.308600425720215L11.639744283447266,17.678100425720217C11.202544283447265,17.532500425720215,10.747144283447266,17.459700425720214,10.255344283447265,17.459700425720214Z" fill="#FF0050" fill-opacity="1"/></g></g><g mask="url(#master_svg3_1_016)"><g><path d="M28.25258413391113,8.994139671325684L28.25258413391113,13.327299671325683C25.35628413391113,13.327299671325683,22.696684133911134,12.398799671325683,20.510684133911134,10.832999671325684L20.510684133911134,22.139239671325683C20.510684133911134,27.783239671325685,15.920184133911134,32.38943967132568,10.254944133911133,32.38943967132568C8.068974133911134,32.38943967132568,6.046964133911133,31.697639671325682,4.389284133911133,30.532439671325683C6.265554133911133,32.53513967132568,8.925134133911133,33.80953967132568,11.894344133911133,33.80953967132568C17.541484133911133,33.80953967132568,22.150184133911132,29.221539671325683,22.150184133911132,23.559339671325684L22.150184133911132,12.253099671325684C24.336084133911132,13.818899671325685,27.013884133911134,14.747399671325685,29.892084133911133,14.747399671325685L29.892084133911133,9.176210671325684C29.32738413391113,9.157999671325683,28.780884133911133,9.103380671325684,28.25258413391113,8.994139671325684Z" fill="#FF0050" fill-opacity="1"/></g></g><g mask="url(#master_svg4_1_024)"><g><path d="M20.50966410293579,22.139799987220766L20.50966410293579,10.833599987220763C22.69556410293579,12.399399987220765,25.373364102935792,13.327899987220764,28.25156410293579,13.327899987220764L28.25156410293579,8.994769987220764C26.57566410293579,8.630649987220764,25.11836410293579,7.738539987220764,24.02536410293579,6.500499987220764C22.27656410293579,5.371699987220764,21.019664102935792,3.551049987220764,20.63716410293579,1.4208999872207642L16.55666410293579,1.4208999872207642L16.55666410293579,23.723799987220765C16.46556410293579,26.218099987220764,14.407164102935791,28.220799987220765,11.893364102935791,28.220799987220765C10.326744102935791,28.220799987220765,8.942264102935791,27.456099987220764,8.104314102935792,26.272699987220765C6.610584102935791,25.489799987220763,5.590474102935791,23.924099987220764,5.590474102935791,22.139799987220766C5.590474102935791,19.554499987220765,7.685344102935791,17.460799987220764,10.27204410293579,17.460799987220764C10.745644102935792,17.460799987220764,11.219344102935791,17.533599987220764,11.656464102935791,17.679199987220763L11.656464102935791,13.309699987220764C6.118744102935791,13.437099987220764,1.655764102935791,17.988799987220766,1.655764102935791,23.541699987220763C1.655764102935791,26.236299987220765,2.6940841029357907,28.694099987220763,4.406414102935791,30.514799987220766C6.064094102935791,31.679999987220764,8.104324102935792,32.371899987220765,10.27204410293579,32.371899987220765C15.900864102935792,32.390099987220765,20.50966410293579,27.783799987220764,20.50966410293579,22.139799987220766Z" fill="#111111" fill-opacity="1"/></g></g></g></svg>